<svg width="128" height="128" viewBox="0 0 128 128" fill="none" xmlns="http://www.w3.org/2000/svg">
<rect width="128" height="128" rx="12" fill="#071424"/>
<g clip-path="url(#clip0_10_41)">
<path fill-rule="evenodd" clip-rule="evenodd" d="M111.405 107.84H80.8163L73.8037 100.827L66.8051 107.84H36.216L73.8037 70.2524L111.405 107.84Z" fill="#F68C2C"/>
<path d="M113.818 20C113.383 20.2945 113.032 20.5189 112.696 20.7714C99.2314 30.7573 85.7672 40.748 72.3029 50.7433C72.0193 51.0505 71.6258 51.2332 71.2082 51.2516C70.7905 51.27 70.3824 51.1226 70.0729 50.8415C58.1795 42.6882 46.2627 34.5816 34.3226 26.5217C33.6551 26.0889 32.874 25.8643 32.0785 25.8765C26.5526 26.0308 21.0266 26.2692 15.5007 26.4937C15.094 26.4937 14.6872 26.5778 14 26.6339L56.4123 76.3955L24.9537 107.84H28.6423L112.934 23.6886C113.429 23.2294 113.776 22.6342 113.934 21.9779C114.091 21.3216 114.051 20.6335 113.818 20Z" fill="#F5F5F5"/>
</g>
<defs>
<clipPath id="clip0_10_41">
<rect width="100" height="87.8541" fill="white" transform="translate(14 20)"/>
</clipPath>
</defs>
</svg>
