<svg width="80" height="115" viewBox="0 0 80 115" fill="none" xmlns="http://www.w3.org/2000/svg">
<path d="M15.5795 45.4512L12.2355 47.6072L9.41952 49.7192L7.08752 51.7432L5.15152 53.7232L3.61152 55.6152L2.42352 57.5072L1.49952 59.3552L0.839522 61.1592L0.443525 62.9632L0.311523 64.8112L0.399522 66.6152L1.19152 72.2472L2.07152 77.6592L3.17152 82.9392L4.35952 88.0432L5.41552 89.1872L6.42752 89.9792L7.43952 90.5072L8.45152 90.7272L9.55152 90.7712L10.6515 90.5512L11.8835 90.0232L13.2035 89.1872L16.5475 86.5912L20.9475 82.8952L26.6235 77.8352L15.5795 45.4512Z" fill="url(#paint0_linear_9722_7599)"/>
<path d="M64.1993 45.4512L67.4993 47.6072L70.3153 49.7192L72.6473 51.7432L74.5833 53.7232L76.1233 55.6152L77.3553 57.5072L78.2793 59.3552L78.8953 61.1592L79.2913 62.9632L79.4233 64.8112L79.3353 66.6152L78.5873 72.2472L77.6633 77.6592L76.6073 82.9392L75.3753 88.0432L74.3193 89.1872L73.3073 89.9792L72.2953 90.5072L71.2833 90.7272L70.2273 90.7712L69.0833 90.5512L67.8953 90.0232L66.5313 89.1872L63.2313 86.5912L58.8313 82.8952L53.1113 77.8352L64.1993 45.4512Z" fill="url(#paint1_linear_9722_7599)"/>
<path d="M53.9037 82.28L56.2797 78.496L58.2597 74.8L59.9317 71.28L61.2517 67.804L62.3957 64.24L63.2757 60.764L63.8917 57.376L64.2877 54.12L64.4637 50.82L64.4197 47.564L64.2437 44.484L63.8477 41.448L63.0997 37.444L62.0877 33.616L60.8997 29.964L59.4917 26.4L57.9517 23.1L54.5197 16.896L50.9997 11.616L48.2717 8.052L45.8517 5.192L41.7597 0.88L41.0997 0.395997L40.3517 0.0879987L39.5157 0L38.7237 0.0879987L37.9317 0.352001L37.2717 0.835997L35.5117 2.552L30.7157 7.92L27.9437 11.44L24.3357 16.676L22.5317 19.712L20.9037 22.792L19.3197 26.092L17.9117 29.656L16.6797 33.264L15.7117 37.092L14.9197 41.096L14.5677 44.132L14.3477 47.256V50.468L14.5237 53.812L14.9197 57.112L15.5357 60.5L16.4597 63.976L17.6037 67.628L18.9677 71.104L20.6837 74.668L22.7077 78.408L25.1277 82.28H53.9037Z" fill="url(#paint2_linear_9722_7599)"/>
<path d="M41.672 0.88L41.012 0.395997L40.308 0.0879987L39.516 0L38.768 0.0879987L38.02 0.352001L37.404 0.835997L33.488 5.016L31.156 7.788L28.56 11.22L25.216 16.368L23.5 19.36H55.18L53.508 16.412L50.208 11.308L45.412 5.06L41.672 0.88Z" fill="url(#paint3_linear_9722_7599)"/>
<path d="M53.9471 82.2803L56.4991 78.3203H22.6191L25.1271 82.2803H53.9471Z" fill="#D9DFE8"/>
<path d="M54.6079 103.84L54.3439 105.072L53.8599 106.04L53.0239 106.568L52.1439 106.832H51.3519L50.5599 106.568L49.8119 106.04L47.3039 103.664L47.0399 103.576L46.8639 103.708L41.8039 113.52L40.9239 114.4L40.3079 114.664L39.6039 114.796L38.3719 114.576L37.3599 113.74L36.9639 113.08L32.2119 103.708L31.9919 103.62L31.7719 103.664L29.1759 106.084L28.4279 106.612L27.6799 106.832L26.9319 106.876L26.0519 106.612L25.5679 106.304L24.9519 105.556L24.0279 102.564L23.5879 99.4843L23.6319 95.0403L24.4239 89.7603L24.6439 88.7923L25.0839 88.0003L25.7439 87.4283L26.8439 86.9883L28.0319 87.1203L31.2439 88.4403L33.7079 89.2323L36.2159 89.7163L38.6799 89.8923L41.2319 89.8483L43.7839 89.5403L46.3799 88.9243L50.8679 87.2083L51.9239 87.1643L52.6279 87.4283L53.8159 88.4403L54.5199 89.5843L55.5319 94.1163L55.6639 97.1083L55.4879 99.0443L54.6079 103.84Z" fill="url(#paint4_linear_9722_7599)"/>
<path d="M25.1279 82.2793H53.8599V86.2393H25.1279V82.2793Z" fill="#909AA9"/>
<path d="M52.5836 39.6004L52.4516 41.4044L52.1436 43.1204L51.5716 44.7484L50.7796 46.2884L49.8556 47.6524L48.7116 48.9284L47.4796 50.0724L46.0716 50.9964L44.5316 51.7444L42.9036 52.3164L41.2316 52.6684L39.3836 52.8004L37.5796 52.6684L35.8636 52.3164L34.2796 51.7444L32.7396 50.9964L31.3316 50.0724L30.0556 48.9284L28.9556 47.6524L27.9876 46.2884L27.2396 44.7484L26.6676 43.1204L26.3156 41.4044L26.1836 39.6004L26.3156 37.7964L26.6676 36.0804L27.2396 34.4524L27.9876 32.9124L28.9556 31.5484L30.0556 30.2724L31.3316 29.1284L32.7396 28.2044L34.2796 27.4564L35.8636 26.8844L37.5796 26.5324L39.3836 26.4004L41.2316 26.5324L42.9036 26.8844L44.5316 27.4564L46.0716 28.2044L47.4796 29.1284L48.7116 30.2724L49.8556 31.5484L50.7796 32.9124L51.5716 34.4524L52.1436 36.0804L52.4516 37.7964L52.5836 39.6004Z" fill="#ECF1FF"/>
<path d="M48.184 39.6008L48.052 41.2288L47.656 42.6808L46.996 44.0448L46.116 45.2768L45.06 46.3328L43.828 47.2128L42.464 47.8288L41.012 48.2688L39.384 48.4008L37.8 48.2688L36.304 47.8288L34.94 47.2128L33.708 46.3328L32.696 45.2768L31.816 44.0448L31.156 42.6808L30.76 41.2288L30.584 39.6008L30.76 37.9728L31.156 36.5208L31.816 35.1568L32.696 33.9248L33.708 32.8688L34.94 31.9888L36.304 31.3728L37.8 30.9328L39.384 30.8008L41.012 30.9328L42.464 31.3728L43.828 31.9888L45.06 32.8688L46.116 33.9248L46.996 35.1568L47.656 36.5208L48.052 37.9728L48.184 39.6008Z" fill="url(#paint5_linear_9722_7599)"/>
<path d="M39.1196 66L37.5796 67.716L36.6116 69.256L35.4236 71.808L34.4556 75.328L34.1916 77.396L34.0596 79.86L34.1476 82.28L34.4996 85.052L35.1596 88.264L36.6116 93.148L39.0756 99L41.5396 93.192L43.0356 88.352L43.7396 85.184L44.0916 82.368L44.1796 79.948L44.0476 77.528L43.7836 75.416L42.8596 71.896L41.6716 69.3L40.6596 67.76L39.1196 66Z" fill="url(#paint6_linear_9722_7599)"/>
<defs>
<linearGradient id="paint0_linear_9722_7599" x1="13.4675" y1="90.7712" x2="13.4675" y2="33.2745" gradientUnits="userSpaceOnUse">
<stop stop-color="#A2ABB9"/>
<stop offset="1" stop-color="#E7EAF0"/>
</linearGradient>
<linearGradient id="paint1_linear_9722_7599" x1="66.2673" y1="90.7712" x2="66.2673" y2="33.2745" gradientUnits="userSpaceOnUse">
<stop stop-color="#A2ABB9"/>
<stop offset="1" stop-color="#E7EAF0"/>
</linearGradient>
<linearGradient id="paint2_linear_9722_7599" x1="39.4057" y1="82.28" x2="39.4057" y2="-9.23659" gradientUnits="userSpaceOnUse">
<stop stop-color="#A2ABB9"/>
<stop offset="1" stop-color="#E7EAF0"/>
</linearGradient>
<linearGradient id="paint3_linear_9722_7599" x1="39.34" y1="19.36" x2="39.34" y2="0" gradientUnits="userSpaceOnUse">
<stop stop-color="#A2ABB9"/>
<stop offset="1" stop-color="#E7EAF0"/>
</linearGradient>
<linearGradient id="paint4_linear_9722_7599" x1="29.1239" y1="110.28" x2="44.1943" y2="91.9342" gradientUnits="userSpaceOnUse">
<stop stop-color="#A2ABB9"/>
<stop offset="1" stop-color="#E7EAF0"/>
</linearGradient>
<linearGradient id="paint5_linear_9722_7599" x1="39.384" y1="48.4008" x2="39.384" y2="26.072" gradientUnits="userSpaceOnUse">
<stop stop-color="#A2ABB9"/>
<stop offset="1" stop-color="#E7EAF0"/>
</linearGradient>
<linearGradient id="paint6_linear_9722_7599" x1="39.1196" y1="99" x2="39.1196" y2="62.2955" gradientUnits="userSpaceOnUse">
<stop stop-color="#A2ABB9"/>
<stop offset="1" stop-color="#E7EAF0"/>
</linearGradient>
</defs>
</svg>
