<svg width="265" height="264" viewBox="0 0 265 264" fill="none" xmlns="http://www.w3.org/2000/svg">
<path d="M79.6996 173.096L80.1396 174.856L79.8756 176.176L79.5676 176.792L78.9076 177.496L78.0716 177.98L69.8436 178.156L69.9316 187.44L70.2396 192.72H64.6956L64.8716 188.804L64.9156 178.816L64.4756 179.168L63.4636 179.432L62.3196 179.124L61.5276 178.244L57.1716 178.024L55.6316 177.32L55.0156 176.748L54.5756 176.044L54.2676 175.252L54.2236 173.976L55.2796 171.336L55.7636 169.752L56.8196 168.52L62.8916 157.3L63.7276 156.024L64.6516 154.968L65.3556 154.44L66.2356 154.132L67.2476 154L68.9636 154.308L69.7116 154.748L70.9436 155.936L76.2236 166.188L77.0596 166.584L77.7636 167.112L78.3796 167.816L78.8636 168.608L79.1716 169.488L79.2596 170.456L79.0396 171.776L79.6996 173.096Z" fill="url(#paint0_linear_9722_7591)"/>
<path d="M216.1 173.096L216.54 174.856L216.276 176.176L215.968 176.792L215.308 177.496L214.472 177.98L206.244 178.156L206.332 187.44L206.64 192.72H201.096L201.272 188.804L201.316 178.816L200.876 179.168L199.864 179.432L198.72 179.124L197.928 178.244L193.572 178.024L192.736 177.76L192.032 177.32L191.416 176.748L190.976 176.044L190.668 175.252L190.624 173.976L191.68 171.336L192.164 169.752L193.22 168.52L199.292 157.3L200.128 156.024L201.052 154.968L201.756 154.44L202.636 154.132L203.648 154L205.364 154.308L206.112 154.748L207.344 155.936L212.624 166.188L213.46 166.584L214.164 167.112L214.78 167.816L215.264 168.608L215.572 169.488L215.66 170.456L215.44 171.776L216.1 173.096Z" fill="url(#paint1_linear_9722_7591)"/>
<path d="M199.907 177.319L200.259 178.727L200.127 179.519L199.819 180.223L199.291 180.795L198.631 181.147L192.251 181.279L192.295 188.583L192.559 192.719H188.203L188.379 189.639V181.851L187.851 182.159L187.235 182.291L186.355 182.027L185.739 181.367L182.351 181.191L181.163 180.663L180.327 179.651L180.107 179.035L180.063 178.023L181.251 174.723L182.087 173.711L186.795 164.911L188.203 163.107L188.731 162.711L189.391 162.447L190.183 162.359L191.547 162.623L192.163 162.931L192.911 163.591L197.223 171.907L198.411 172.655L199.291 173.799L199.555 175.251L199.423 176.307L199.907 177.319Z" fill="url(#paint2_linear_9722_7591)"/>
<path fill-rule="evenodd" clip-rule="evenodd" d="M125.68 182.6L143.368 182.908L159.868 183.832L174.74 185.284L181.912 186.208L188.292 187.22L194.012 188.32L198.192 188.452L202.064 188.76L205.716 189.244L209.324 189.948L212.492 190.74L215.264 191.664L217.332 192.544L219.048 193.424L221.688 195.228L222.744 196.328L223.448 197.384L223.888 198.44L224.02 199.54L223.932 200.42L223.184 202.136L222.524 203.016L221.468 204.028L220.104 205.04L218.344 206.052L214.384 207.724L211.964 208.472L206.816 209.616L203.824 210.1L199.512 211.288L194.408 212.432L194.54 213.84L194.408 215.072L194.144 216.304L193.616 217.492L192.868 218.724L191.9 219.956L190.536 221.276L188.908 222.64L186.884 223.96L182.132 226.38L176.544 228.492L173.288 229.46L168.932 230.516L164.18 231.44L159.032 232.232L153.84 232.76L148.384 233.068L142.62 233.2L137.428 233.112L132.5 232.848L127.792 232.408L123.04 231.792L118.684 231.044L114.592 230.12L110.544 229.064L106.936 227.92L103.724 226.688L101.348 225.588L97.3881 223.344L94.2641 220.88L93.0321 219.604L92.0641 218.284L91.4041 217.008L84.4961 216.392L72.0441 214.984L60.6921 213.18L51.0121 211.068L46.8761 209.924L43.4001 208.736L38.5601 206.712L36.8001 205.744L34.3361 203.852L33.5441 202.928L33.0161 202.092L32.7081 201.256L32.6201 200.42L32.7521 199.54L33.1041 198.616L33.7201 197.692L34.6441 196.724L35.9641 195.668L37.5921 194.656L39.6601 193.6L42.2121 192.544L45.3361 191.444L49.4281 190.212L54.2241 188.98L59.8561 187.836L71.7801 185.9L78.7321 185.02L93.0321 183.744L108.828 182.908L125.68 182.6Z" fill="#E7EAF0"/>
<path d="M196.476 71.4124L196.124 73.0844L195.728 73.7884L194.54 75.0204L192.868 75.8124L190.932 76.1204H173.816L172.76 75.9884L170.956 75.3724L169.46 74.3164L168.492 72.9084L168.228 72.1164L168.14 71.1924L168.492 69.5204L169.504 68.1124L170.956 67.0124L170.736 66.0884L170.868 65.2084L171.22 64.4164L171.836 63.7564L172.584 63.2284L173.508 62.8764L174.564 62.7444L175.84 62.9644L176.896 63.4924L177.776 62.3484L178.832 61.3804L180.064 60.5444L181.472 59.9284L182.968 59.5324L184.64 59.4004L186.18 59.5324L187.544 59.8404L188.864 60.3684L190.052 61.1164L191.02 61.9964L191.856 62.9644L192.472 64.1084L192.868 65.2964L193 67.0124L193.968 67.4964L194.804 68.0684L195.508 68.7724L196.036 69.5644L196.344 70.4444L196.476 71.4124Z" fill="url(#paint3_linear_9722_7591)"/>
<path d="M93.7798 91.9151L93.6478 93.0591L93.2958 94.0711L92.7238 95.0831L91.9318 95.9191L91.0078 96.6671L89.8638 97.2831L88.6758 97.7231L87.3558 98.0311L85.8598 98.1191H61.3958L58.5798 97.5911L57.3478 97.1071L56.1598 96.4911L55.1918 95.6991L54.3998 94.8631L53.8278 93.8951L53.4318 92.8391L53.2998 91.6511L53.4318 90.5071L53.8278 89.4511L54.4438 88.4391L55.2358 87.5591L56.2038 86.8111L57.3478 86.1511L56.9958 84.9191L57.3038 83.4231L57.6998 82.7191L58.8878 81.6191L60.5158 80.8271L62.4958 80.5191L64.2998 80.7831L65.7958 81.4871L67.5118 79.5511L68.6118 78.6711L70.9878 77.3071L73.7598 76.4271L76.8398 76.1191L78.5118 76.2071L81.5038 76.8671L84.1878 78.0991L86.3438 79.8151L87.1798 80.8271L87.8838 81.9271L88.3678 83.0711L88.7198 84.3031L88.8078 86.1511L90.2598 86.7671L91.4478 87.5151L92.4158 88.4391L93.4278 90.0671L93.7798 91.9151Z" fill="url(#paint4_linear_9722_7591)"/>
<defs>
<linearGradient id="paint0_linear_9722_7591" x1="78.2007" y1="192.255" x2="64.7914" y2="192.464" gradientUnits="userSpaceOnUse">
<stop stop-color="#E0E5EF" stop-opacity="0"/>
<stop offset="1" stop-color="#E0E5EF"/>
</linearGradient>
<linearGradient id="paint1_linear_9722_7591" x1="214.601" y1="192.255" x2="201.192" y2="192.464" gradientUnits="userSpaceOnUse">
<stop stop-color="#E0E5EF" stop-opacity="0"/>
<stop offset="1" stop-color="#E0E5EF"/>
</linearGradient>
<linearGradient id="paint2_linear_9722_7591" x1="198.652" y1="192.355" x2="188.32" y2="192.516" gradientUnits="userSpaceOnUse">
<stop stop-color="#E0E5EF" stop-opacity="0"/>
<stop offset="1" stop-color="#E0E5EF"/>
</linearGradient>
<linearGradient id="paint3_linear_9722_7591" x1="209.11" y1="70.6031" x2="176.504" y2="70.8038" gradientUnits="userSpaceOnUse">
<stop stop-color="#E0E5EF" stop-opacity="0"/>
<stop offset="1" stop-color="#E0E5EF"/>
</linearGradient>
<linearGradient id="paint4_linear_9722_7591" x1="111.829" y1="90.2902" x2="65.2489" y2="90.5542" gradientUnits="userSpaceOnUse">
<stop stop-color="#E0E5EF" stop-opacity="0"/>
<stop offset="1" stop-color="#E0E5EF"/>
</linearGradient>
</defs>
</svg>
